<?xml version="1.0" encoding="utf-8"?>
<!-- Svg Vector Icons : http://www.onlinewebfonts.com/icon -->
<!DOCTYPE svg PUBLIC "-//W3C//DTD SVG 1.1//EN" "http://www.w3.org/Graphics/SVG/1.1/DTD/svg11.dtd">
<svg version="1.1" xmlns="http://www.w3.org/2000/svg" xmlns:xlink="http://www.w3.org/1999/xlink" x="0px" y="0px" viewBox="0 0 1000 1000" enable-background="new 0 0 1000 1000" xml:space="preserve">
<metadata> Svg Vector Icons : http://www.onlinewebfonts.com/icon </metadata>
<g><g transform="translate(0.000000,511.000000) scale(0.100000,-0.100000)"><path d="M2918.5,4939c-61.2-65.3-75.5-95.9-75.5-163.3c0-46.9-6.1-155.1-14.3-242.9l-12.2-157.2l-1032.9,14.3l-1035,14.3l-85.7-112.3l-83.7-112.3l61.2-181.7c57.2-169.4,61.2-187.8,40.8-316.4c-12.2-75.5-22.5-318.4-22.5-538.9c0-391.9,2-406.2,61.2-596.1c34.7-106.2,93.9-259.3,132.7-338.9c65.3-140.8,69.4-155.1,81.7-471.6C950.6,1317.7,1069,433.8,1158.9,72.5c57.2-236.8,69.4-330.7,81.7-636.9c16.3-398.1,26.5-361.3-126.6-487.9c-93.9-77.6-134.7-171.5-124.5-281.7c12.2-126.6,87.8-240.9,249-371.5c71.5-61.3,136.8-124.5,144.9-138.8c22.5-55.1,28.6-310.3,40.8-1553.5l12.3-1235l77.6-77.6l77.6-79.6l2457.8,22.5c1351.4,12.2,2708.9,32.7,3015,44.9l557.3,22.5l79.6,83.7l79.6,85.8l-10.2,193.9c-6.1,106.2-20.4,222.5-30.6,255.2c-26.6,89.8-159.2,216.4-392,381.7c-267.4,185.8-300.1,216.4-449.1,422.6c-114.3,157.2-138.8,177.6-269.5,236.8c-77.6,36.7-165.3,91.9-193.9,122.5c-71.4,77.6-147,112.3-245,112.3c-71.4,0-96,12.2-155.2,77.6c-124.5,132.7-132.7,157.2-136.8,510.3c-4.1,287.8,2,332.7,42.9,438.9c24.5,65.3,44.9,134.7,44.9,157.2c0,104.1-53.1,257.2-124.6,365.4l-79.6,120.5l55.1,153.1c57.2,153.1,59.2,157.2,269.5,324.6c316.4,251.1,298,210.2,298,683.8v398.1l165.3,157.2c89.8,85.7,189.9,167.4,224.6,181.7c144.9,67.4,193.9,106.2,332.8,257.2c79.6,89.8,179.6,181.7,222.5,206.2c42.9,22.5,102.1,85.7,136.8,140.8c322.5,516.5,383.8,579.7,704.3,714.5c547.1,230.7,1094.2,485.8,1143.2,532.8c30.6,30.6,63.3,91.9,75.5,144.9c20.4,87.8,18.4,93.9-61.2,191.9l-83.7,102.1l-132.7-10.2c-73.5-6.1-159.2-16.3-189.8-20.4c-38.8-6.1-57.1,2-67.3,28.6c-6.1,18.4-47,55.1-89.8,79.6c-71.4,40.8-98,42.9-340.9,34.7c-145-6.1-306.2-14.3-359.3-20.4c-81.6-6.1-97.9-2-108.1,32.7c-8.2,20.4-51,59.2-98,83.7c-155.1,79.6-306.2,36.7-483.8-136.8c-61.2-61.2-138.8-120.4-173.5-132.7c-77.6-28.6-214.3-6.1-228.7,36.7c-6.1,20.4-44.9,69.4-83.7,112.3c-63.3,63.3-87.8,75.5-159.2,75.5c-87.8,0-110.2,20.4-110.2,102.1c0,36.7-177.6,163.3-230.7,163.3c-14.3,0-59.2-18.4-98-38.8l-73.5-40.8l-200,89.8c-110.3,49-269.5,136.8-357.2,193.9c-126.6,83.7-181.7,106.2-287.8,120.4c-71.4,10.2-165.4,28.6-208.2,38.8c-118.4,30.6-269.5-20.4-365.4-120.4c-42.9-42.9-91.9-79.6-114.3-79.6c-20.4,0-73.5,36.7-116.4,81.7l-79.6,81.7h-165.4c-153.1,0-173.5,4.1-247,61.2c-71.4,53.1-95.9,59.2-226.6,61.2c-130.6,0-151.1,6.1-177.6,46.9c-32.7,49-122.5,459.3-144.9,657.3c-26.5,228.6-155.1,334.8-445,369.5C2996.1,5016.6,2992,5014.6,2918.5,4939z M3206.3,4641c10.2-14.3,26.5-77.6,34.7-138.8c18.4-153.1,126.6-624.6,155.1-679.8c75.5-144.9,206.2-218.4,389.9-218.4c98,0,134.7-10.2,179.6-46.9c44.9-38.8,91.9-51,216.4-61.2c151.1-14.3,165.4-18.4,242.9-95.9l83.7-81.7h185.8h187.8l104.1,104.1c104.1,104.1,106.1,106.1,183.7,81.7c40.8-12.3,112.3-22.5,155.1-22.5c61.2,0,112.3-22.5,212.3-89.8c198-132.7,589.9-300.1,716.5-306.2c81.6-4.1,112.3-16.3,147-59.2c47-53.1,193.9-136.8,245-136.8c16.4,0,53.1-34.7,81.7-75.5c73.5-104.1,202.1-149,418.5-149c204.1,0,253.1,20.4,428.7,189.8l128.6,122.5l38.8-61.2c44.9-75.5,144.9-149,202.1-149c24.5,0,73.5,12.3,112.3,28.6c36.7,14.3,177.6,34.7,312.3,42.9l245,14.3l61.3-91.9l63.3-91.9l-126.5-55.1c-67.4-28.6-275.6-118.4-461.3-198c-483.8-208.2-561.4-277.6-886-798.2c-40.8-65.3-95.9-126.6-120.4-134.7c-26.5-10.2-124.5-102.1-216.4-202.1c-95.9-106.2-189.8-189.9-220.5-198c-130.6-32.7-547-418.5-600.1-555.2c-12.3-34.7-20.4-204.1-20.4-424.6l2-369.5l-208.2-161.3c-112.3-89.8-224.6-181.7-245-204.1c-20.4-20.4-69.4-140.8-110.2-263.3c-85.7-267.4-81.7-318.4,34.7-485.8c104.1-149,114.3-204.1,59.2-342.9c-36.8-93.9-42.9-151.1-42.9-396c0-159.2,10.2-359.3,20.4-447.1c18.4-153.1,22.5-163.3,138.8-306.2c155.1-185.8,230.7-238.8,345-238.8c73.5,0,104.1-12.2,167.4-69.4c40.8-38.8,130.7-95.9,196-128.6c104.1-49,138.8-81.7,247-230.7c108.2-151.1,159.2-198,389.9-361.3c343-247,353.2-259.3,359.3-383.8l6.1-102.1l-694.1-22.5c-381.8-12.3-1659.6-30.6-2839.5-38.8l-2145.5-16.3l-12.2,98c-8.2,53.1-14.3,545-14.3,1090.1c-2,1075.8-20.4,1494.2-69.4,1592.2c-18.4,32.7-100,116.4-183.7,185.8c-83.7,69.4-157.2,138.8-163.3,157.2c-8.2,20.4,18.4,59.2,79.6,112.3c51,44.9,106.2,106.1,120.4,136.8c81.7,159.2,53.1,814.5-57.1,1267.7c-91.9,381.7-189.9,1108.4-216.4,1608.6l-20.4,391.9l-79.6,159.2c-144.9,287.8-165.4,394-165.4,841c0,216.4,10.2,451.1,24.5,524.6c20.4,110.2,18.4,144.9-10.2,238.8c-18.4,59.2-34.7,114.3-34.7,120.4c0,8.2,457.3,14.3,1014.6,14.3H2994l77.6,75.5l77.6,75.5V4445C3149.2,4657.3,3161.4,4696.1,3206.3,4641z"/></g></g>
</svg>